<svg width="500" height="500" viewBox="0 0 500 500" fill="none" xmlns="http://www.w3.org/2000/svg">
<rect width="500" height="500" rx="50" fill="#394170"/>
<path d="M164.063 175.226C148.181 176.517 132.881 183.01 120.408 193.707C112.01 200.908 104.027 212.397 99.9108 223.26C92.6765 242.283 93.4664 263.636 102.073 281.95C112.841 304.844 134.502 320.827 159.532 324.407C165.061 325.198 175.081 325.198 180.569 324.407C188.386 323.283 195.661 321.035 202.979 317.497C205.105 316.464 208.289 315.093 210.956 313.583C214.996 311.296 215.074 306.38 211.793 303.095L209.547 300.847C207.828 299.126 205.138 298.848 203.104 300.182C198.489 303.179 194.622 305.093 189.591 306.842C182.191 309.422 179.447 309.838 169.676 309.838C161.569 309.838 160.613 309.755 156.455 308.673C151.341 307.383 144.647 304.844 141.03 302.804C124.981 293.73 113.881 278.079 110.845 260.306C106.438 234.541 118.87 209.233 142.028 196.871C146.851 194.332 154.542 191.709 160.072 190.794C165.519 189.878 174.707 189.878 180.07 190.794C188.095 192.167 197.574 195.997 203.894 200.409C205.454 201.515 207.585 201.333 208.937 199.98L211.752 197.162C215.234 193.676 215.023 189.755 210.866 187.111C209.494 186.238 208.02 185.349 206.596 184.55C193.874 177.432 178.574 174.061 164.063 175.226Z" fill="#F1B600"/>
<path d="M222.603 207.526L220.166 209.985C218.517 211.65 218.283 214.252 219.61 216.184C225.597 224.8 229.422 236.164 230.045 247.111C230.752 260.181 226.47 274.708 218.82 285.03C217.886 286.301 218.016 288.061 219.125 289.181L222.52 292.606L225.478 295.069C225.699 295.253 225.94 295.409 226.198 295.536C227.717 296.28 229.533 295.857 230.509 294.475C231.108 293.627 231.781 292.651 232.415 291.69C247.3 269.505 249.129 240.493 237.113 216.601C234.993 212.313 231.824 207.979 229.708 204.813C228.688 203.622 226.881 203.522 225.737 204.594L222.603 207.526Z" fill="#F1B600"/>
<path d="M200.983 229.129L197.644 232.446C196.484 233.598 196.188 235.362 196.909 236.83C200.983 244.905 200.983 255.311 196.95 263.386C196.208 264.823 196.483 266.575 197.631 267.715L201.108 271.17C204.671 274.736 208.611 273.73 210.726 269.154C215.984 257.779 216.464 245.122 211.835 233.5C211.488 232.627 211.002 231.512 210.456 230.351C208.319 225.81 204.555 225.605 200.983 229.129Z" fill="#F1B600"/>
<path d="M167.949 241.822C164.911 243.397 162.978 246.708 162.978 250.291C163.033 259.411 175.24 263.048 180.709 255.611C182.034 253.819 182.311 252.896 182.311 250.399C182.255 242.637 174.854 238.24 167.949 241.822Z" fill="#F1B600"/>
<path d="M324.063 175.226C308.181 176.517 292.881 183.01 280.408 193.707C272.01 200.908 264.027 212.397 259.911 223.26C252.676 242.283 253.466 263.636 262.073 281.95C272.841 304.844 294.502 320.827 319.532 324.407C325.061 325.198 335.081 325.198 340.569 324.407C348.386 323.283 355.661 321.035 362.979 317.497C365.105 316.464 368.289 315.093 370.956 313.583C374.996 311.296 375.074 306.38 371.793 303.095L369.547 300.847C367.828 299.126 365.138 298.848 363.104 300.182C358.489 303.179 354.622 305.093 349.591 306.842C342.191 309.422 339.447 309.838 329.676 309.838C321.569 309.838 320.613 309.755 316.455 308.673C311.341 307.383 304.647 304.844 301.03 302.804C284.981 293.73 273.881 278.079 270.845 260.306C266.438 234.541 278.87 209.233 302.028 196.871C306.851 194.332 314.542 191.709 320.072 190.794C325.519 189.878 334.707 189.878 340.07 190.794C348.095 192.167 357.574 195.997 363.894 200.409C365.454 201.515 367.585 201.333 368.937 199.98L371.752 197.162C375.234 193.676 375.023 189.755 370.866 187.111C369.494 186.238 368.02 185.349 366.596 184.55C353.874 177.432 338.574 174.061 324.063 175.226Z" fill="#F1B600"/>
<path d="M382.603 207.526L380.166 209.985C378.517 211.65 378.283 214.252 379.61 216.184C385.597 224.8 389.422 236.164 390.045 247.111C390.752 260.181 386.47 274.708 378.82 285.03C377.886 286.301 378.016 288.061 379.125 289.181L382.52 292.606L385.478 295.069C385.699 295.253 385.94 295.409 386.198 295.536C387.717 296.28 389.533 295.857 390.509 294.475C391.108 293.627 391.781 292.651 392.415 291.69C407.3 269.505 409.129 240.493 397.113 216.601C394.993 212.313 391.824 207.979 389.708 204.813C388.688 203.622 386.881 203.522 385.737 204.594L382.603 207.526Z" fill="#F1B600"/>
<path d="M360.983 229.129L357.644 232.446C356.484 233.598 356.188 235.362 356.909 236.83C360.983 244.905 360.983 255.311 356.95 263.386C356.208 264.823 356.483 266.575 357.631 267.715L361.108 271.17C364.671 274.736 368.611 273.73 370.726 269.154C375.984 257.779 376.465 245.122 371.835 233.5C371.488 232.627 371.002 231.512 370.456 230.351C368.319 225.81 364.555 225.605 360.983 229.129Z" fill="#F1B600"/>
<path d="M327.949 241.822C324.911 243.397 322.978 246.708 322.978 250.291C323.033 259.411 335.24 263.048 340.709 255.611C342.034 253.819 342.311 252.896 342.311 250.399C342.255 242.637 334.854 238.24 327.949 241.822Z" fill="#F1B600"/>
</svg>
